<svg width="318" height="600" viewBox="0 0 318 600" fill="none" xmlns="http://www.w3.org/2000/svg">
<rect width="318" height="600" rx="20" fill="#C4C4C4"/>
<rect x="21" y="25" width="271" height="44" rx="10" fill="#242424" fill-opacity="0.4"/>
<path d="M140.316 43.254C140.25 43.362 140.181 43.443 140.109 43.497C140.037 43.545 139.947 43.569 139.839 43.569C139.725 43.569 139.596 43.521 139.452 43.425C139.314 43.329 139.14 43.224 138.93 43.11C138.726 42.99 138.483 42.882 138.201 42.786C137.919 42.684 137.583 42.633 137.193 42.633C136.833 42.633 136.515 42.678 136.239 42.768C135.969 42.858 135.741 42.984 135.555 43.146C135.369 43.308 135.228 43.5 135.132 43.722C135.042 43.938 134.997 44.175 134.997 44.433C134.997 44.763 135.084 45.039 135.258 45.261C135.432 45.477 135.66 45.663 135.942 45.819C136.23 45.975 136.557 46.113 136.923 46.233C137.289 46.347 137.661 46.47 138.039 46.602C138.423 46.734 138.798 46.884 139.164 47.052C139.53 47.22 139.854 47.433 140.136 47.691C140.424 47.949 140.655 48.264 140.829 48.636C141.003 49.008 141.09 49.461 141.09 49.995C141.09 50.571 140.991 51.111 140.793 51.615C140.595 52.119 140.307 52.56 139.929 52.938C139.557 53.31 139.095 53.604 138.543 53.82C137.997 54.036 137.373 54.144 136.671 54.144C136.257 54.144 135.852 54.102 135.456 54.018C135.066 53.94 134.691 53.829 134.331 53.685C133.977 53.535 133.644 53.355 133.332 53.145C133.02 52.935 132.741 52.701 132.495 52.443L133.107 51.435C133.161 51.351 133.23 51.285 133.314 51.237C133.398 51.189 133.491 51.165 133.593 51.165C133.731 51.165 133.884 51.231 134.052 51.363C134.22 51.489 134.421 51.63 134.655 51.786C134.895 51.936 135.183 52.077 135.519 52.209C135.855 52.335 136.257 52.398 136.725 52.398C137.487 52.398 138.075 52.212 138.489 51.84C138.909 51.468 139.119 50.955 139.119 50.301C139.119 49.935 139.032 49.638 138.858 49.41C138.684 49.176 138.453 48.981 138.165 48.825C137.883 48.669 137.559 48.537 137.193 48.429C136.827 48.321 136.455 48.207 136.077 48.087C135.699 47.961 135.327 47.817 134.961 47.655C134.595 47.487 134.268 47.271 133.98 47.007C133.698 46.737 133.47 46.407 133.296 46.017C133.122 45.621 133.035 45.129 133.035 44.541C133.035 44.073 133.125 43.62 133.305 43.182C133.491 42.744 133.758 42.357 134.106 42.021C134.46 41.679 134.895 41.406 135.411 41.202C135.927 40.998 136.515 40.896 137.175 40.896C137.919 40.896 138.6 41.013 139.218 41.247C139.842 41.481 140.379 41.814 140.829 42.246L140.316 43.254ZM148.991 48.375C148.991 48.051 148.943 47.751 148.847 47.475C148.757 47.193 148.622 46.95 148.442 46.746C148.262 46.536 148.037 46.374 147.767 46.26C147.503 46.14 147.197 46.08 146.849 46.08C146.147 46.08 145.595 46.281 145.193 46.683C144.791 47.085 144.536 47.649 144.428 48.375H148.991ZM144.374 49.563C144.398 50.085 144.479 50.538 144.617 50.922C144.755 51.3 144.938 51.615 145.166 51.867C145.4 52.119 145.676 52.308 145.994 52.434C146.318 52.554 146.678 52.614 147.074 52.614C147.452 52.614 147.779 52.572 148.055 52.488C148.331 52.398 148.571 52.302 148.775 52.2C148.979 52.092 149.153 51.996 149.297 51.912C149.441 51.822 149.573 51.777 149.693 51.777C149.849 51.777 149.969 51.837 150.053 51.957L150.602 52.668C150.374 52.938 150.116 53.166 149.828 53.352C149.54 53.538 149.234 53.691 148.91 53.811C148.586 53.925 148.253 54.006 147.911 54.054C147.569 54.108 147.236 54.135 146.912 54.135C146.276 54.135 145.685 54.03 145.139 53.82C144.599 53.604 144.128 53.289 143.726 52.875C143.33 52.461 143.018 51.948 142.79 51.336C142.568 50.724 142.457 50.019 142.457 49.221C142.457 48.585 142.556 47.991 142.754 47.439C142.958 46.887 143.246 46.407 143.618 45.999C143.996 45.591 144.452 45.27 144.986 45.036C145.526 44.796 146.135 44.676 146.813 44.676C147.377 44.676 147.899 44.769 148.379 44.955C148.859 45.135 149.273 45.402 149.621 45.756C149.969 46.11 150.239 46.545 150.431 47.061C150.629 47.571 150.728 48.153 150.728 48.807C150.728 49.107 150.695 49.308 150.629 49.41C150.563 49.512 150.443 49.563 150.269 49.563H144.374ZM157.438 49.986C156.748 50.01 156.166 50.067 155.692 50.157C155.218 50.241 154.834 50.352 154.54 50.49C154.246 50.622 154.033 50.781 153.901 50.967C153.775 51.153 153.712 51.357 153.712 51.579C153.712 51.795 153.745 51.981 153.811 52.137C153.883 52.287 153.979 52.413 154.099 52.515C154.225 52.611 154.369 52.683 154.531 52.731C154.699 52.773 154.882 52.794 155.08 52.794C155.584 52.794 156.016 52.701 156.376 52.515C156.742 52.323 157.096 52.047 157.438 51.687V49.986ZM152.308 46.098C153.346 45.132 154.582 44.649 156.016 44.649C156.544 44.649 157.012 44.736 157.42 44.91C157.834 45.078 158.179 45.318 158.455 45.63C158.737 45.942 158.95 46.314 159.094 46.746C159.244 47.172 159.319 47.646 159.319 48.168V54H158.455C158.269 54 158.128 53.973 158.032 53.919C157.936 53.859 157.855 53.742 157.789 53.568L157.6 52.821C157.366 53.031 157.135 53.22 156.907 53.388C156.679 53.55 156.442 53.688 156.196 53.802C155.956 53.916 155.695 54 155.413 54.054C155.137 54.114 154.831 54.144 154.495 54.144C154.123 54.144 153.775 54.093 153.451 53.991C153.133 53.889 152.857 53.736 152.623 53.532C152.389 53.322 152.203 53.064 152.065 52.758C151.933 52.452 151.867 52.092 151.867 51.678C151.867 51.324 151.96 50.979 152.146 50.643C152.338 50.307 152.65 50.007 153.082 49.743C153.52 49.473 154.093 49.251 154.801 49.077C155.515 48.903 156.394 48.804 157.438 48.78V48.168C157.438 47.508 157.297 47.016 157.015 46.692C156.733 46.368 156.319 46.206 155.773 46.206C155.401 46.206 155.089 46.254 154.837 46.35C154.585 46.44 154.366 46.539 154.18 46.647C153.994 46.755 153.829 46.857 153.685 46.953C153.541 47.043 153.388 47.088 153.226 47.088C153.094 47.088 152.98 47.055 152.884 46.989C152.794 46.917 152.719 46.83 152.659 46.728L152.308 46.098ZM163.412 46.521C163.7 45.939 164.048 45.483 164.456 45.153C164.864 44.817 165.353 44.649 165.923 44.649C166.121 44.649 166.307 44.673 166.481 44.721C166.655 44.763 166.811 44.829 166.949 44.919L166.814 46.377C166.79 46.479 166.751 46.551 166.697 46.593C166.649 46.629 166.583 46.647 166.499 46.647C166.409 46.647 166.28 46.632 166.112 46.602C165.944 46.566 165.767 46.548 165.581 46.548C165.311 46.548 165.071 46.587 164.861 46.665C164.657 46.743 164.471 46.857 164.303 47.007C164.141 47.157 163.997 47.34 163.871 47.556C163.745 47.772 163.628 48.018 163.52 48.294V54H161.585V44.82H162.71C162.914 44.82 163.055 44.859 163.133 44.937C163.211 45.009 163.265 45.138 163.295 45.324L163.412 46.521ZM174.402 46.62C174.342 46.698 174.285 46.758 174.231 46.8C174.177 46.842 174.099 46.863 173.997 46.863C173.895 46.863 173.787 46.827 173.673 46.755C173.565 46.683 173.433 46.605 173.277 46.521C173.127 46.431 172.944 46.35 172.728 46.278C172.512 46.206 172.242 46.17 171.918 46.17C171.498 46.17 171.129 46.245 170.811 46.395C170.499 46.545 170.235 46.761 170.019 47.043C169.809 47.319 169.65 47.658 169.542 48.06C169.44 48.456 169.389 48.903 169.389 49.401C169.389 49.917 169.446 50.376 169.56 50.778C169.674 51.18 169.836 51.519 170.046 51.795C170.262 52.071 170.52 52.281 170.82 52.425C171.126 52.569 171.468 52.641 171.846 52.641C172.218 52.641 172.521 52.596 172.755 52.506C172.989 52.416 173.184 52.317 173.34 52.209C173.496 52.101 173.628 52.002 173.736 51.912C173.85 51.822 173.97 51.777 174.096 51.777C174.252 51.777 174.372 51.837 174.456 51.957L175.005 52.668C174.783 52.938 174.537 53.166 174.267 53.352C173.997 53.538 173.712 53.691 173.412 53.811C173.112 53.925 172.8 54.006 172.476 54.054C172.152 54.108 171.825 54.135 171.495 54.135C170.925 54.135 170.391 54.03 169.893 53.82C169.401 53.604 168.969 53.295 168.597 52.893C168.231 52.485 167.94 51.99 167.724 51.408C167.514 50.82 167.409 50.151 167.409 49.401C167.409 48.723 167.505 48.096 167.697 47.52C167.889 46.938 168.168 46.437 168.534 46.017C168.906 45.597 169.365 45.27 169.911 45.036C170.457 44.796 171.087 44.676 171.801 44.676C172.467 44.676 173.052 44.784 173.556 45C174.066 45.216 174.519 45.522 174.915 45.918L174.402 46.62ZM178.497 45.909C178.875 45.537 179.289 45.24 179.739 45.018C180.189 44.79 180.714 44.676 181.314 44.676C181.818 44.676 182.259 44.76 182.637 44.928C183.021 45.096 183.342 45.333 183.6 45.639C183.864 45.945 184.062 46.314 184.194 46.746C184.326 47.172 184.392 47.643 184.392 48.159V54H182.466V48.159C182.466 47.541 182.322 47.061 182.034 46.719C181.752 46.377 181.32 46.206 180.738 46.206C180.306 46.206 179.904 46.305 179.532 46.503C179.166 46.701 178.821 46.971 178.497 47.313V54H176.562V40.68H178.497V45.909Z" fill="#DCDCDC"/>
<path d="M31.404 109.678H27.3V121H25.392V109.678H21.27V108.076H31.404V109.678ZM32.6253 113.611C32.9193 113.011 33.2733 112.54 33.6873 112.198C34.1013 111.856 34.5993 111.685 35.1813 111.685C35.3793 111.685 35.5653 111.709 35.7393 111.757C35.9193 111.799 36.0753 111.865 36.2073 111.955L36.0903 113.278C36.0483 113.44 35.9493 113.521 35.7933 113.521C35.7093 113.521 35.5833 113.506 35.4153 113.476C35.2473 113.44 35.0673 113.422 34.8753 113.422C34.5933 113.422 34.3443 113.464 34.1283 113.548C33.9123 113.626 33.7173 113.746 33.5433 113.908C33.3753 114.064 33.2253 114.259 33.0933 114.493C32.9613 114.721 32.8383 114.982 32.7243 115.276V121H30.9693V111.856H31.9773C32.1693 111.856 32.2983 111.892 32.3643 111.964C32.4363 112.03 32.4873 112.15 32.5173 112.324L32.6253 113.611ZM43.2841 115.411C43.2841 115.063 43.2331 114.742 43.1311 114.448C43.0351 114.154 42.8911 113.899 42.6991 113.683C42.5071 113.467 42.2731 113.299 41.9971 113.179C41.7211 113.059 41.4031 112.999 41.0431 112.999C40.3051 112.999 39.7231 113.212 39.2971 113.638C38.8771 114.064 38.6101 114.655 38.4961 115.411H43.2841ZM44.7331 119.695C44.5171 119.947 44.2681 120.166 43.9861 120.352C43.7041 120.532 43.4041 120.679 43.0861 120.793C42.7681 120.907 42.4381 120.991 42.0961 121.045C41.7601 121.099 41.4271 121.126 41.0971 121.126C40.4671 121.126 39.8821 121.021 39.3421 120.811C38.8081 120.595 38.3431 120.283 37.9471 119.875C37.5571 119.461 37.2511 118.951 37.0291 118.345C36.8131 117.733 36.7051 117.031 36.7051 116.239C36.7051 115.603 36.8041 115.012 37.0021 114.466C37.2001 113.914 37.4821 113.434 37.8481 113.026C38.2201 112.618 38.6731 112.297 39.2071 112.063C39.7411 111.829 40.3411 111.712 41.0071 111.712C41.5651 111.712 42.0781 111.805 42.5461 111.991C43.0201 112.171 43.4281 112.435 43.7701 112.783C44.1121 113.131 44.3791 113.56 44.5711 114.07C44.7691 114.58 44.8681 115.162 44.8681 115.816C44.8681 116.086 44.8381 116.269 44.7781 116.365C44.7181 116.455 44.6071 116.5 44.4451 116.5H38.4511C38.4691 117.046 38.5471 117.523 38.6851 117.931C38.8231 118.333 39.0121 118.669 39.2521 118.939C39.4981 119.209 39.7891 119.41 40.1251 119.542C40.4611 119.674 40.8361 119.74 41.2501 119.74C41.6401 119.74 41.9761 119.695 42.2581 119.605C42.5461 119.515 42.7921 119.419 42.9961 119.317C43.2061 119.209 43.3801 119.11 43.5181 119.02C43.6621 118.93 43.7881 118.885 43.8961 118.885C44.0401 118.885 44.1511 118.939 44.2291 119.047L44.7331 119.695ZM48.4015 113.125C48.5995 112.915 48.8065 112.723 49.0225 112.549C49.2385 112.375 49.4665 112.228 49.7065 112.108C49.9525 111.982 50.2135 111.886 50.4895 111.82C50.7715 111.748 51.0715 111.712 51.3895 111.712C51.8935 111.712 52.3345 111.796 52.7125 111.964C53.0965 112.132 53.4175 112.369 53.6755 112.675C53.9335 112.975 54.1285 113.338 54.2605 113.764C54.3925 114.19 54.4585 114.661 54.4585 115.177V121H52.6945V115.177C52.6945 114.523 52.5445 114.016 52.2445 113.656C51.9445 113.29 51.4855 113.107 50.8675 113.107C50.4175 113.107 49.9945 113.215 49.5985 113.431C49.2085 113.641 48.8455 113.929 48.5095 114.295V121H46.7545V111.856H47.8075C48.0535 111.856 48.2065 111.973 48.2665 112.207L48.4015 113.125ZM62.7218 114.07C62.4338 113.692 62.1218 113.428 61.7858 113.278C61.4558 113.128 61.0838 113.053 60.6698 113.053C59.8658 113.053 59.2418 113.344 58.7978 113.926C58.3598 114.502 58.1408 115.345 58.1408 116.455C58.1408 117.037 58.1888 117.535 58.2848 117.949C58.3868 118.357 58.5308 118.693 58.7168 118.957C58.9088 119.215 59.1428 119.407 59.4188 119.533C59.6948 119.653 60.0068 119.713 60.3548 119.713C60.8648 119.713 61.3058 119.599 61.6778 119.371C62.0498 119.143 62.3978 118.822 62.7218 118.408V114.07ZM64.4858 107.716V121H63.4238C63.1778 121 63.0248 120.883 62.9648 120.649L62.8118 119.596C62.4218 120.058 61.9778 120.43 61.4798 120.712C60.9878 120.988 60.4178 121.126 59.7698 121.126C59.2478 121.126 58.7738 121.024 58.3478 120.82C57.9278 120.616 57.5678 120.319 57.2678 119.929C56.9678 119.533 56.7368 119.044 56.5748 118.462C56.4128 117.88 56.3318 117.211 56.3318 116.455C56.3318 115.777 56.4218 115.147 56.6018 114.565C56.7818 113.983 57.0428 113.479 57.3848 113.053C57.7268 112.627 58.1408 112.294 58.6268 112.054C59.1128 111.808 59.6618 111.685 60.2738 111.685C60.8258 111.685 61.2938 111.775 61.6778 111.955C62.0678 112.135 62.4158 112.39 62.7218 112.72V107.716H64.4858ZM68.7702 111.856V121H67.0152V111.856H68.7702ZM69.1032 109.03C69.1032 109.192 69.0702 109.348 69.0042 109.498C68.9382 109.642 68.8482 109.771 68.7342 109.885C68.6262 109.993 68.4972 110.08 68.3472 110.146C68.1972 110.206 68.0412 110.236 67.8792 110.236C67.7172 110.236 67.5642 110.206 67.4202 110.146C67.2762 110.08 67.1472 109.993 67.0332 109.885C66.9252 109.771 66.8382 109.642 66.7722 109.498C66.7122 109.348 66.6822 109.192 66.6822 109.03C66.6822 108.862 66.7122 108.706 66.7722 108.562C66.8382 108.412 66.9252 108.283 67.0332 108.175C67.1472 108.061 67.2762 107.974 67.4202 107.914C67.5642 107.848 67.7172 107.815 67.8792 107.815C68.0412 107.815 68.1972 107.848 68.3472 107.914C68.4972 107.974 68.6262 108.061 68.7342 108.175C68.8482 108.283 68.9382 108.412 69.0042 108.562C69.0702 108.706 69.1032 108.862 69.1032 109.03ZM72.9581 113.125C73.1561 112.915 73.3631 112.723 73.5791 112.549C73.7951 112.375 74.0231 112.228 74.2631 112.108C74.5091 111.982 74.7701 111.886 75.0461 111.82C75.3281 111.748 75.6281 111.712 75.9461 111.712C76.4501 111.712 76.8911 111.796 77.2691 111.964C77.6531 112.132 77.9741 112.369 78.2321 112.675C78.4901 112.975 78.6851 113.338 78.8171 113.764C78.9491 114.19 79.0151 114.661 79.0151 115.177V121H77.2511V115.177C77.2511 114.523 77.1011 114.016 76.8011 113.656C76.5011 113.29 76.0421 113.107 75.4241 113.107C74.9741 113.107 74.5511 113.215 74.1551 113.431C73.7651 113.641 73.4021 113.929 73.0661 114.295V121H71.3111V111.856H72.3641C72.6101 111.856 72.7631 111.973 72.8231 112.207L72.9581 113.125ZM84.5964 116.437C84.9084 116.437 85.1814 116.395 85.4154 116.311C85.6554 116.227 85.8534 116.11 86.0094 115.96C86.1714 115.804 86.2914 115.618 86.3694 115.402C86.4534 115.186 86.4954 114.949 86.4954 114.691C86.4954 114.163 86.3334 113.743 86.0094 113.431C85.6914 113.113 85.2204 112.954 84.5964 112.954C83.9784 112.954 83.5074 113.113 83.1834 113.431C82.8654 113.743 82.7064 114.163 82.7064 114.691C82.7064 114.949 82.7454 115.186 82.8234 115.402C82.9074 115.612 83.0274 115.795 83.1834 115.951C83.3454 116.101 83.5434 116.221 83.7774 116.311C84.0174 116.395 84.2904 116.437 84.5964 116.437ZM87.3954 121.477C87.3954 121.261 87.3354 121.09 87.2154 120.964C87.0954 120.832 86.9304 120.73 86.7204 120.658C86.5164 120.58 86.2764 120.526 86.0004 120.496C85.7244 120.46 85.4334 120.433 85.1274 120.415C84.8274 120.397 84.5184 120.382 84.2004 120.37C83.8824 120.352 83.5764 120.322 83.2824 120.28C82.9704 120.436 82.7124 120.625 82.5084 120.847C82.3104 121.069 82.2114 121.33 82.2114 121.63C82.2114 121.822 82.2594 122.002 82.3554 122.17C82.4574 122.338 82.6104 122.482 82.8144 122.602C83.0244 122.728 83.2854 122.824 83.5974 122.89C83.9154 122.962 84.2934 122.998 84.7314 122.998C85.1634 122.998 85.5444 122.959 85.8744 122.881C86.2044 122.809 86.4804 122.704 86.7024 122.566C86.9304 122.434 87.1014 122.275 87.2154 122.089C87.3354 121.903 87.3954 121.699 87.3954 121.477ZM89.1774 112.198V112.855C89.1774 113.071 89.0424 113.206 88.7724 113.26L87.7914 113.404C87.8754 113.59 87.9414 113.788 87.9894 113.998C88.0374 114.202 88.0614 114.418 88.0614 114.646C88.0614 115.096 87.9744 115.504 87.8004 115.87C87.6264 116.23 87.3864 116.539 87.0804 116.797C86.7744 117.055 86.4084 117.253 85.9824 117.391C85.5624 117.529 85.1004 117.598 84.5964 117.598C84.1824 117.598 83.7954 117.553 83.4354 117.463C83.2554 117.571 83.1174 117.691 83.0214 117.823C82.9314 117.949 82.8864 118.075 82.8864 118.201C82.8864 118.411 82.9734 118.567 83.1474 118.669C83.3274 118.771 83.5584 118.846 83.8404 118.894C84.1284 118.936 84.4554 118.963 84.8214 118.975C85.1934 118.987 85.5684 119.008 85.9464 119.038C86.3304 119.062 86.7054 119.11 87.0714 119.182C87.4434 119.248 87.7704 119.359 88.0524 119.515C88.3404 119.665 88.5714 119.875 88.7454 120.145C88.9254 120.409 89.0154 120.754 89.0154 121.18C89.0154 121.576 88.9164 121.96 88.7184 122.332C88.5264 122.704 88.2444 123.034 87.8724 123.322C87.5004 123.61 87.0474 123.841 86.5134 124.015C85.9794 124.189 85.3734 124.276 84.6954 124.276C84.0174 124.276 83.4264 124.21 82.9224 124.078C82.4244 123.946 82.0074 123.769 81.6714 123.547C81.3414 123.325 81.0924 123.067 80.9244 122.773C80.7624 122.479 80.6814 122.173 80.6814 121.855C80.6814 121.411 80.8194 121.036 81.0954 120.73C81.3714 120.418 81.7524 120.175 82.2384 120.001C81.9744 119.881 81.7644 119.719 81.6084 119.515C81.4524 119.305 81.3744 119.029 81.3744 118.687C81.3744 118.555 81.3984 118.42 81.4464 118.282C81.4944 118.138 81.5664 117.997 81.6624 117.859C81.7644 117.715 81.8874 117.58 82.0314 117.454C82.1814 117.328 82.3524 117.214 82.5444 117.112C82.0944 116.86 81.7404 116.527 81.4824 116.113C81.2244 115.693 81.0954 115.204 81.0954 114.646C81.0954 114.196 81.1824 113.791 81.3564 113.431C81.5304 113.071 81.7704 112.762 82.0764 112.504C82.3884 112.246 82.7574 112.048 83.1834 111.91C83.6154 111.772 84.0864 111.703 84.5964 111.703C85.3884 111.703 86.0694 111.868 86.6394 112.198H89.1774Z" fill="#242424"/>
</svg>
