<svg width="50" height="50" viewBox="0 0 50 50" fill="none" xmlns="http://www.w3.org/2000/svg">
<path d="M25 0.000837686C18.3693 0.000837686 12.0106 2.63471 7.32223 7.32307C2.63388 12.012 0 18.3709 0 25.0008C0 31.6308 2.63388 37.9903 7.32223 42.6786C12.0111 47.367 18.37 50.0008 25 50.0008C31.63 50.0008 37.9894 47.367 42.6778 42.6786C47.3661 37.9897 50 31.6308 50 25.0008C50 20.6122 48.8447 16.3009 46.6506 12.5001C44.4564 8.69951 41.3005 5.54357 37.4999 3.34944C33.6992 1.15531 29.3878 0 24.9992 0L25 0.000837686ZM25 43.7523V43.7518C20.027 43.7518 15.2575 41.7762 11.7413 38.2601C8.22516 34.7439 6.24965 29.9742 6.24965 25.0014C6.24965 20.0286 8.22516 15.2589 11.7413 11.7427C15.2575 8.22657 20.0272 6.25106 25 6.25106C29.9728 6.25106 34.7425 8.22657 38.2587 11.7427C41.7748 15.2589 43.7504 20.0286 43.7504 25.0014C43.7504 29.9742 41.7748 34.7439 38.2587 38.2601C34.7425 41.7762 29.9728 43.7518 25 43.7518V43.7523Z" fill="#D9D9D9"/>
<path d="M34.3753 21.8766H28.1249V15.6262C28.1249 14.5096 27.5293 13.478 26.5625 12.9199C25.5957 12.3613 24.4044 12.3613 23.4377 12.9199C22.4709 13.478 21.8753 14.5097 21.8753 15.6262V21.8766H15.6249C14.5083 21.8766 13.4767 22.4722 12.9186 23.439C12.36 24.4058 12.36 25.5971 12.9186 26.5638C13.4767 27.5306 14.5084 28.1262 15.6249 28.1262H21.8753V34.3766C21.8753 35.4932 22.4709 36.5248 23.4377 37.0829C24.4045 37.6415 25.5958 37.6415 26.5625 37.0829C27.5293 36.5248 28.1249 35.4931 28.1249 34.3766V28.1262H34.3753C35.4919 28.1262 36.5235 27.5306 37.0816 26.5638C37.6402 25.597 37.6402 24.4057 37.0816 23.439C36.5235 22.4722 35.4918 21.8766 34.3753 21.8766Z" fill="#D9D9D9"/>
</svg>
