<svg width="44" height="44" viewBox="0 0 44 44" fill="none" xmlns="http://www.w3.org/2000/svg">
<path d="M22.0877 21.9115C20.9896 20.8143 19.2033 20.8156 18.1045 21.9118C17.5734 22.4426 17.281 23.1502 17.281 23.9032C17.281 24.6563 17.5734 25.3635 18.1045 25.8947C18.6356 26.4258 19.3429 26.7182 20.0959 26.7182C20.849 26.7182 21.5569 26.4255 22.088 25.8947C23.1855 24.7966 23.1852 23.0096 22.0877 21.9115L22.0877 21.9115ZM20.7786 24.5849C20.5902 24.7726 20.3437 24.866 20.0969 24.866C19.8501 24.866 19.6036 24.7723 19.4155 24.5852C19.2337 24.4027 19.1335 24.161 19.1335 23.9029C19.1335 23.6448 19.2336 23.4031 19.4155 23.2215C19.7796 22.8581 20.4151 22.8574 20.7783 23.2212C21.1531 23.5973 21.1537 24.2092 20.7786 24.5849L20.7786 24.5849Z" fill="#B6B6F0"/>
<path d="M22 0C9.8694 0 0 9.8694 0 22C0 34.1306 9.8694 44 22 44C34.1306 44 44 34.1306 44 22C44 9.8694 34.1306 0 22 0ZM27.458 23.2538C27.2221 24.3436 26.4891 25.1261 25.2792 25.5793C22.5466 26.6045 22.2122 28.3135 21.8582 30.123C21.6275 31.3033 21.3891 32.5225 20.4954 33.9602C19.9184 34.8894 18.7582 35.9439 17.233 36.1193C17.0825 36.1367 16.931 36.1458 16.7778 36.1458C15.2535 36.1458 13.5858 35.2796 11.9233 33.6171L10.3829 32.0767C8.55627 30.2494 7.69041 28.4137 7.88039 26.7667C8.0555 25.242 9.11066 24.0813 10.0389 23.5043C11.4776 22.6103 12.6968 22.3722 13.8766 22.1422C15.6868 21.7878 17.3956 21.4541 18.4204 18.7209C18.8743 17.5109 19.6571 16.7783 20.7468 16.5427C21.1914 16.4458 21.6792 16.439 22.1716 16.5233C22.7241 16.6177 23.2471 16.8994 23.6839 17.3365L26.663 20.3207C27.1017 20.7607 27.3831 21.2903 27.4778 21.8515C27.5595 22.3425 27.5528 22.8148 27.4581 23.2539L27.458 23.2538ZM27.1595 17.8566L26.1427 16.8398L31.351 11.6312L32.3678 12.6479L27.1595 17.8566ZM34.2067 11.8671L32.1322 9.79265L33.6878 8.23701L35.7623 10.3115L34.2067 11.8671Z" fill="#B6B6F0"/>
<path d="M17.8043 28.8688L15.1319 26.1964C14.9513 26.0158 14.7141 25.9253 14.477 25.9253C14.2398 25.9253 14.0027 26.0158 13.8221 26.1964C13.4609 26.5573 13.4609 27.1453 13.8221 27.5061L16.4949 30.1789C16.8451 30.5291 17.4544 30.5291 17.8046 30.1789C18.1655 29.818 18.1655 29.2296 17.8043 28.8688H17.8043Z" fill="#B6B6F0"/>
</svg>
