<svg width="44" height="44" viewBox="0 0 44 44" fill="none" xmlns="http://www.w3.org/2000/svg">
<path d="M22 0C9.8694 0 0 9.8694 0 22C0 34.1306 9.8694 44 22 44C34.1306 44 44 34.1306 44 22C44 9.8694 34.1306 0 22 0ZM10.2135 32.4508C8.69984 30.6294 7.86665 28.3233 7.86665 25.9583C7.86665 23.2448 8.92439 20.6893 10.8451 18.7629C12.2304 17.3775 13.9666 16.428 15.8666 16.0174L16.3845 15.9053L16.1151 16.3615C15.9729 16.6015 15.8372 16.8451 15.708 17.0913C15.5639 17.3682 15.436 17.6318 15.3142 17.898L15.2017 18.1574C15.1197 18.3455 15.0392 18.5345 14.9636 18.726C14.9326 18.8058 14.9026 18.8863 14.8732 18.9664L14.8473 19.0359C14.7811 19.2142 14.7178 19.3929 14.658 19.5731C14.6218 19.6823 14.5873 19.7928 14.5524 19.9024C14.4971 20.081 14.4448 20.2616 14.3954 20.4432C14.3643 20.5566 14.3353 20.6629 14.3081 20.7698C14.26 20.9617 14.2164 21.1536 14.1757 21.3465L14.153 21.4502C14.1388 21.5155 14.124 21.5807 14.111 21.6466C14.0661 21.8783 14.0274 22.1106 13.9922 22.3445L13.9621 22.5296C13.9204 22.8252 13.8865 23.1234 13.861 23.4222L13.8474 23.6287C13.8313 23.8565 13.8174 24.0858 13.8093 24.3159C13.807 24.3811 13.8064 24.4461 13.8061 24.511L13.8048 24.6341C13.8019 24.8273 13.8012 25.0208 13.8057 25.2143C13.8086 25.331 13.8135 25.4473 13.8183 25.5639C13.8258 25.749 13.8364 25.9338 13.8503 26.1186C13.8597 26.2372 13.8694 26.3558 13.881 26.4743C13.8991 26.6611 13.9214 26.8475 13.9463 27.0342C13.9647 27.1754 13.9773 27.2749 13.9931 27.3741C14.0238 27.5763 14.0606 27.7776 14.0997 27.9786L14.1201 28.0907C14.1308 28.1495 14.1414 28.2083 14.1534 28.2671C14.1705 28.3491 14.1905 28.4309 14.2099 28.5129L14.2664 28.7533L10.3753 32.6447L10.2135 32.4508ZM27.9822 28.1449C27.5709 30.0388 26.6214 31.7711 25.2373 33.1545C23.316 35.0758 20.7605 36.1338 18.0412 36.1338C15.6772 36.1338 13.3721 35.301 11.5506 33.7889L11.3551 33.6264L15.2472 29.7343L15.3729 29.7641C16.6293 30.0606 17.9032 30.2105 19.1593 30.2105C19.4885 30.2105 19.8054 30.1999 20.1834 30.1766L20.3834 30.164C20.7049 30.1404 21.0257 30.1081 21.3449 30.0665L21.5106 30.0419C21.8163 29.9983 22.1206 29.9469 22.4236 29.8868L22.5212 29.8684C22.843 29.8019 23.1628 29.724 23.4794 29.6387L23.6607 29.5893C23.9792 29.4998 24.2955 29.4035 24.6083 29.2953L24.7591 29.4872L24.6826 29.2685C24.9869 29.1615 25.288 29.0452 25.5852 28.9212L25.6996 28.874C26.0059 28.7438 26.3076 28.6036 26.6055 28.455L26.7434 28.3852C27.081 28.213 27.3734 28.0537 27.6383 27.897L28.0945 27.6276L27.9822 28.1449ZM34.4485 13.5381C34.454 16.5579 33.574 19.481 31.9043 21.9916C31.336 22.8432 30.6879 23.6354 29.9775 24.3458C29.4661 24.8511 28.9766 25.2792 28.4788 25.6556C25.8364 27.6987 22.5352 28.8245 19.1858 28.8245C18.4117 28.8245 17.637 28.7645 16.859 28.6452L16.4064 28.5761L19.5935 25.3897H25.1074C25.4896 25.3897 25.8004 25.0789 25.8004 24.6963C25.8004 24.3141 25.4896 24.0034 25.1074 24.0034H20.9792L28.4842 16.498H31.3743C31.7565 16.498 32.0673 16.1872 32.0673 15.8051C32.0673 15.4229 31.7565 15.1121 31.3743 15.1121H28.1976C28.0128 15.1121 27.8386 15.1838 27.7075 15.3149L23.187 19.8354V15.7068C23.187 15.3246 22.8759 15.0138 22.4937 15.0138C22.1115 15.0138 21.8007 15.3246 21.8007 15.7068V21.221L15.4301 27.592L15.3616 27.1391C14.7358 23.0183 15.8313 18.7799 18.3655 15.5105C18.7425 15.0094 19.1787 14.5106 19.6591 14.0299C20.3757 13.3081 21.166 12.6581 22.0069 12.0976C24.5153 10.4325 27.4394 9.55214 30.4637 9.55214C31.6267 9.55214 32.7782 9.68428 33.8873 9.94435L34.0275 9.97731L34.0599 10.1175C34.318 11.2273 34.4485 12.3777 34.4485 13.5369L34.2169 13.5389L34.4485 13.5381Z" fill="#8DCA8C"/>
</svg>
