<svg width="44" height="44" viewBox="0 0 44 44" fill="none" xmlns="http://www.w3.org/2000/svg">
<path d="M22 0C9.8694 0 0 9.8694 0 22C0 34.1306 9.8694 44 22 44C34.1306 44 44 34.1306 44 22C44 9.8694 34.1306 0 22 0ZM16.5265 32.0133L18.5541 34.0965L17.202 35.4864L16.5265 32.0133ZM29.2211 26.4535C29.9028 26.4535 30.4572 27.0079 30.4572 27.6902C30.4572 28.3719 29.9028 28.9263 29.2211 28.9263H14.7789C14.0972 28.9263 13.5428 28.3719 13.5428 27.6902C13.5428 27.0079 14.0972 26.4535 14.7789 26.4535H29.2211ZM16.0575 24.9483V17.8811H27.9425V24.9483H16.0575ZM21.9998 32.7134L23.3455 34.0969L21.9998 35.4796L20.6542 34.0972L21.9998 32.7134ZM19.6036 33.0171L17.0871 30.4319H19.7797L20.9492 31.6343L19.6036 33.0171ZM23.0501 31.634L24.2197 30.4315H26.9122L24.3958 33.0168L23.0501 31.634ZM17.5518 37.2852L19.6039 35.1758L20.9495 36.5583L18.0012 39.5887L17.5518 37.2852ZM21.9998 40.0659L20.8194 38.8511L21.9998 37.6379L23.1803 38.8511L21.9998 40.0659ZM25.9989 39.5893L23.0505 36.5589L24.3962 35.1764L26.4483 37.2858L25.9989 39.5893ZM26.7978 35.4867L25.4457 34.0968L27.4734 32.0136L26.7978 35.4867ZM35.4142 29.987C35.4142 31.434 34.2373 32.6107 32.7905 32.6107H28.8916L29.3149 30.4345L29.4871 30.4177C30.8982 30.2817 31.9628 29.1093 31.9628 27.6903C31.9628 26.3538 30.9661 25.1907 29.6438 24.9846L29.448 24.9539L29.4477 17.1284C29.4477 16.7133 29.1101 16.3756 28.6949 16.3756H15.3055C14.8904 16.3756 14.5528 16.7132 14.5528 17.1284V24.9539L14.357 24.9846C13.0353 25.1904 12.038 26.3538 12.038 27.6903C12.038 29.1089 13.1021 30.2817 14.5137 30.4177L14.6859 30.4345L15.1091 32.6107H11.2102C9.76321 32.6107 8.58654 31.4338 8.58654 29.987V12.1414C8.58654 10.695 9.76346 9.51799 11.2102 9.51799H32.7909C34.238 9.51799 35.4146 10.6949 35.4146 12.1414L35.4142 29.987Z" fill="#E1B385"/>
</svg>
