<svg width="44" height="44" viewBox="0 0 44 44" fill="none" xmlns="http://www.w3.org/2000/svg">
<path d="M22 0C9.8694 0 0 9.8694 0 22C0 34.1306 9.8694 44 22 44C34.1306 44 44 34.1306 44 22C44 9.8694 34.1306 0 22 0ZM25.5228 9.12752C28.0369 9.12752 30.0827 11.1729 30.0827 13.6867C30.0827 16.2008 28.037 18.2459 25.5228 18.2459C23.0086 18.2459 20.9636 16.2006 20.9636 13.6867C20.9636 11.1726 23.0087 9.12752 25.5228 9.12752V9.12752ZM15.9156 11.8549C17.6773 11.8549 19.1108 13.2884 19.1108 15.0502C19.1108 16.8119 17.6773 18.2454 15.9156 18.2454C14.1539 18.2454 12.7204 16.8119 12.7204 15.0502C12.7201 13.2884 14.1535 11.8549 15.9156 11.8549ZM31.0038 30.7567C31.0038 31.674 30.2575 32.4199 29.3403 32.4199H12.44C11.5228 32.4199 10.7769 31.6742 10.7769 30.7567V21.7616C10.7769 20.8443 11.5232 20.0981 12.44 20.0981H29.3395C30.2567 20.0981 31.003 20.8444 31.003 21.7616L31.0038 30.7567ZM36.9322 29.5843L32.8563 27.8927V24.6254L36.9322 22.9335V29.5843Z" fill="#ADD2DE"/>
<path d="M26.0692 22.3341H15.7102C15.1994 22.3341 14.7839 22.7496 14.7839 23.2604V26.872C14.7839 27.3828 15.1994 27.7982 15.7102 27.7982H26.0684C26.5791 27.7982 26.9946 27.3828 26.9946 26.872V23.2604C26.9952 22.7496 26.5798 22.3341 26.069 22.3341H26.0692ZM25.1426 25.9458H16.6371V24.1866H25.1426V25.9458V25.9458Z" fill="#ADD2DE"/>
</svg>
