<svg width="44" height="44" viewBox="0 0 44 44" fill="none" xmlns="http://www.w3.org/2000/svg">
<path d="M34.2221 43.9999H9.77774C4.39981 43.9999 0 39.6976 0 34.3688V18.6755C0 15.6445 1.46675 12.7598 3.91118 10.9511L16.1334 1.90672C19.6046 -0.635575 24.3956 -0.635575 27.8666 1.90672L40.0888 10.9511C42.5333 12.7599 44 15.6446 44 18.6755V34.3688C44 39.6973 39.6002 43.9999 34.2223 43.9999H34.2221ZM21.9999 4.84005C20.9731 4.84005 19.9466 5.18243 19.0664 5.81773L6.84424 14.8133C5.62202 15.7422 4.88887 17.1598 4.88887 18.6753V34.3686C4.88887 37.0084 7.08877 39.2086 9.77774 39.2086H34.2221C36.9111 39.2086 39.111 37.0574 39.111 34.3686V18.6753C39.111 17.1598 38.3778 15.7418 37.1556 14.8133L24.9334 5.76797C24.0532 5.13265 23.0267 4.83935 21.9999 4.83935V4.84005Z" fill="#D9D9D9"/>
</svg>
